inDegrees=yes
name=teste_3imus.mot
DataType=double
version=3
OpenSimVersion=4.5
endheader
time	hip_flexion_r	knee_angle_r	hip_flexion_l	knee_angle_l	gearToGround_coord_0
67.41018867492676	123.0164524120906	-108.969498897665	81.58918474066843	-72.54434654887611	-673.7462393595354
67.41620302200317	122.9970421021236	-108.903147877428	81.5937901263888	-72.61192445508955	-673.9331206925384
67.42321848869324	122.9756398839529	-108.8308202141539	81.62967192541409	-72.69096916781598	-674.1370422387802
67.42722153663635	122.954692507082	-108.7607498271836	81.61973899026775	-72.75943469179245	-674.3341869831261
67.43222308158875	122.9313914772268	-108.6838312368426	81.63725992505623	-72.83853893778715	-674.5491266290708
67.43731665611267	122.9074993435007	-108.6060351918544	81.66283993428284	-72.91813376676672	-674.7660934214667
67.44215035438538	122.8823228174604	-108.5249187767899	81.66496841835415	-73.00289660330503	-674.9919638254664
67.44715547561646	122.8555715730477	-108.4398004451706	81.68932863958167	-73.08943653663523	-675.227770414966
67.45018982887268	122.8271841527976	-108.3506113938787	81.71745243081367	-73.18058928888517	-675.4743283174272
67.45617151260376	122.7969643553369	-108.2568913382299	81.73734061035766	-73.27603383300031	-675.7324419744435
67.45918583869934	122.7648110315459	-108.1584924410081	81.75991947320134	-73.3770137650001	-676.002556064206
67.46322679519653	122.7305933675641	-108.0551906793308	81.78381893978447	-73.48257331902806	-676.2850624235368
67.46623277664185	122.6943619268057	-107.9473155479018	81.80945543912492	-73.5946600351363	-676.5790403281926
67.471266746521	122.6558937482166	-107.8343825055071	81.83448524635592	-73.7103102073106	-676.8857080169613
67.49018239974976	122.6149788425	-107.7159769627734	81.86243243736909	-73.83180634309402	-677.2058511893468
67.50220441818237	122.5716393748824	-107.5923685798723	81.89166469492852	-73.95847607684425	-677.5386934538128
67.50726342201233	122.5255108544043	-107.462736647997	81.92101107726421	-74.09133518450292	-677.8865982550715
67.51223540306091	122.4768703749079	-107.3280759502801	81.95215469932366	-74.22921636544473	-678.2460641811186
67.51627993583679	122.4255552815033	-107.1881344500045	81.98362637714243	-74.37266554124561	-678.6179684357521
67.52020478248596	122.3716663230986	-107.0433531961623	82.01442920075122	-74.52079188795197	-679.0014131831983
67.52416968345642	122.3153695485959	-106.8944261255811	82.0605039705511	-74.67344739466196	-679.3936710168603
67.52914786338806	122.2567910871724	-106.7417417498609	82.09114488506832	-74.83026293794437	-679.7937799235907
67.53214716911316	122.1958863015556	-106.5853522857786	82.15589627426108	-74.9937919721595	-680.2028871054447
67.5382034778595	122.1331772840263	-106.4266636726184	82.18925636248466	-75.15295378559443	-680.614608112135
67.54216074943542	122.0680877081615	-106.2642649478463	82.22898520009336	-75.31800557832649	-681.0341742723889
67.54815483093262	122.0006587523366	-106.0985538161416	82.27351424741349	-75.48766734621566	-681.4614459771605
67.55118131637573	121.9302959107981	-105.9280094565857	82.31557022534928	-75.66167669443109	-681.8986292432731
67.56425070762634	121.8561106404526	-105.7506643221642	82.37007156711154	-75.8430280579154	-682.3506791835055
67.57020545005798	121.7785938876358	-105.5681400858257	82.41609238168536	-76.02924071501339	-682.8146884764095
67.57516312599182	121.6958779014715	-105.3760678344267	82.47607434958815	-76.22567924137614	-683.3001362118192
67.57814955711365	121.6077488739171	-105.1743876149804	82.52360114950051	-76.43189107838091	-683.8074294767055
67.58417105674744	121.5135186007129	-104.9619146353767	82.63595363856908	-76.66857041022821	-684.3391762233942
67.58719944953918	121.4130568916713	-104.7387686701412	82.64163325594554	-76.88571907131522	-684.8950638761784
67.59029173851013	121.3065052121539	-104.5056590187746	82.71761520500138	-77.11581146054324	-685.4718036328611
67.59426259994507	121.1937432046735	-104.2626947141521	82.79197719380446	-77.36337216383292	-686.070701723257
67.5972318649292	121.075827863301	-104.0124626827625	82.97817384712559	-77.68627573393208	-686.6839937079401
67.60322046279907	120.9583336927751	-103.7667244674632	82.94316945938847	-77.8696103980394	-687.2824442022934
67.60924863815308	120.8266337190198	-103.4954102593021	83.06439187193017	-78.14665806750243	-687.941063875361
67.61724209785461	120.6982307134035	-103.2346941625969	83.12646405127047	-78.40626586480371	-688.5701413468016
67.62122249603271	120.5687836048362	-102.9754602880555	83.21309849449176	-78.66980349962377	-689.1925054349346
67.62416386604309	120.440176074128	-102.7212752825828	83.2923277781221	-78.9285918469389	-689.7998276964307
67.62724208831787	120.3133219193095	-102.4736049335315	83.3869678436389	-79.17969599080767	-690.3887755780802
67.63122272491455	120.1909821655669	-102.2375972432491	83.48255854458634	-79.42408366510953	-690.9479296391457
67.64217782020569	120.0716476801862	-102.0097254393657	83.55129425897088	-79.65156221597546	-691.4857831555669
67.64515900611877	119.9592225931301	-101.7973438426187	83.6143304633224	-79.8656046052137	-691.9854449827243
67.65017080307007	119.8508805974054	-101.5944592342961	83.68514938920389	-80.07111193818824	-692.4604543088652
67.6562077999115	119.7485219582412	-101.4043945890686	83.74875952750325	-80.26431142606303	-692.9046587941842
67.65918135643005	119.6519213709365	-101.2264063977403	83.81954861127936	-80.44382019054761	-693.3189454628834
67.66321158409119	119.5606890031227	-101.0594999997556	83.87038857553082	-80.61418127456524	-693.7068279153423
67.66818356513977	119.4743187510425	-100.9025047315314	83.93218747554903	-80.76988395436416	-694.0707012772867
67.67918825149536	119.393864582882	-100.7571696824523	83.97705899262358	-80.9219566559514	-694.406647972311
67.68416237831116	119.3176419120046	-100.6202234828663	84.02856583995836	-81.06066679951201	-694.7239546218491
67.6892101764679	119.2444988294104	-100.4894857115619	84.0787629955429	-81.19170224852725	-695.0248398942451
67.69222354888916	119.1733858816999	-100.3629905156152	84.12825008710942	-81.31875185051999	-695.3159830674687
67.69624900817871	119.1041349568825	-100.2403945866104	84.18585698579206	-81.44163868493048	-695.5970481701905
67.70029211044312	119.037114476653	-100.1222644136607	84.21568659696287	-81.56227412758403	-695.8681874514732
67.70317959785461	118.9696406554804	-100.003849631567	84.25413222704222	-81.68757864978326	-696.1392521297804
67.70725274085999	118.9018855125066	-99.88545320758078	84.30255509167399	-81.80466581086547	-696.4103460732066
67.71017646789551	118.8319825446568	-99.76382284657059	84.36077202389265	-81.9232165196582	-696.6880117907853
67.71821665763855	118.7590536560106	-99.63747890944849	84.39317874278139	-82.0566893781822	-696.9756872366373
67.72424077987671	118.6829387056768	-99.50620751224839	84.48500651926442	-82.1901225044688	-697.2748719047885
67.72822952270508	118.6033144361247	-99.36951283858184	84.50969879733252	-82.32120935696975	-697.5849281345537
67.73820185661316	118.5169587065162	-99.22197429778679	84.56904280378467	-82.47030170554	-697.9197857053647
67.74427390098572	118.4258469049418	-99.06709374400839	84.62396049068153	-82.6278609949525	-698.270375852309
67.74724912643433	118.3284007295814	-98.90231549010997	84.68261887088332	-82.79890285710918	-698.6430607595553
67.75617957115173	118.2234640889251	-98.72584910962766	84.79513701011186	-82.97865533413021	-699.0406591803746
67.76515936851501	118.1139159707829	-98.54268127084012	84.84267479669874	-83.15564772668586	-699.4542240028917
67.76817345619202	117.9996054774219	-98.35266368776837	84.90394479064778	-83.35145401817293	-699.8813068419162
67.773442029953	117.8790022833605	-98.15338625972532	85.0309121511915	-83.55818233226269	-700.3280499336372
67.78216576576233	117.7546248113558	-97.94912483408486	85.10184056126712	-83.75761234164717	-700.7856155957328
67.78618574142456	117.6286001161066	-97.74341504890724	85.1623845390492	-83.96029951295868	-701.2444255352057
67.7922899723053	117.4955543833099	-97.52757802942764	85.23522118510056	-84.21814854517201	-701.7266084951858
67.8002667427063	117.3660674128526	-97.31879263515803	85.33069359695106	-84.39149716023722	-702.1916505596408
67.80427122116089	117.2384659475906	-97.11424182654991	85.43494190564314	-84.59332737928075	-702.6462194063664
67.80826544761658	117.1082834317088	-96.90674717683024	85.49731628004646	-84.82187364815033	-703.1058828390477
67.8122386932373	116.9819584491862	-96.70651390530126	85.58934903337908	-85.00962067909813	-703.5501067302189
67.82827162742615	116.8569098786228	-96.50935986787644	85.67550700107664	-85.20646636991762	-703.9861624283589
67.83224177360535	116.7333661618471	-96.31558387552263	85.76029066719104	-85.40047918371282	-704.4141261558253
67.83519864082336	116.6119190308117	-96.12604351550847	85.84313544927187	-85.59014338430885	-704.8312665563977
67.84523439407349	116.4908135454652	-95.93795526842474	85.92299773004618	-85.78291172857182	-705.2468037339339
67.85027813911438	116.3720981143182	-95.75443952212515	86.00967333664761	-85.96191838957114	-705.6504447258408
